# xmcd CD database file
#
# Track frame offsets:
#	150
#	17927
#	33985
#	50117
#	64232
#	79040
#	92060
#	109538
#	122472
#	136060
#	149440
#	164660
#	181770
#	199070
#	212102
#	231470
#	248330
#	264160
#	278110
#	295163
#	309085
#
# Disc length: 4359 seconds
#
# Revision: 0
# Processed by: cddbd v1.5.2PL0 Copyright (c) Steve Scherf et al.
# Submitted via: CDex 1.70beta2
#
DISCID=27110515
DTITLE=ChartBreakers - ChartBreakers CGC-511
DYEAR=1900
DGENRE=Country
TTITLE0=Trisha Yearwood - Song Remembers When
TTITLE1=Dwight Yoakam - Fast As You
TTITLE2=Aaron Tippin - Working Man's PhD
TTITLE3=Randy Travis - If I Didn't Have You
TTITLE4=Alabama - Song Of The South
TTITLE5=John Anderson - Straight Tequila Night
TTITLE6=John Anderson - When It Comes To You
TTITLE7=Garth Brooks - Papa Loved Mama
TTITLE8=Brooks and Dunn - Brand New Man
TTITLE9=Mark Chesnutt - Blame It On Texas
TTITLE10=Rodney Crowell - Lovin' All Night
TTITLE11=Billy Ray Cyrus - Could've Been Me
TTITLE12=Joe Diffie - Is It Cold In Here
TTITLE13=Holly Dunn - You Really Had Me Going
TTITLE14=Vince Gill and Patty Loveless - When I Call You Name
TTITLE15=Alan Jackson - Here In The Real World
TTITLE16=Judds - Why Not Me
TTITLE17=Sammy Kershaw - Don't Go Near The Water
TTITLE18=Hal Ketchum - Past The Point Of Rescue
TTITLE19=Patty Loveless - I'm That Kind Of Girl
TTITLE20=McBride and The Ride - Going Out Of My Mind
EXTD=YEAR: 1900
EXTT0=
EXTT1=
EXTT2=
EXTT3=
EXTT4=
EXTT5=
EXTT6=
EXTT7=
EXTT8=
EXTT9=
EXTT10=
EXTT11=
EXTT12=
EXTT13=
EXTT14=
EXTT15=
EXTT16=
EXTT17=
EXTT18=
EXTT19=
EXTT20=
PLAYORDER=
